<?xml version="1.0" encoding="UTF-8"?>
<svg id="Capa_1" xmlns="http://www.w3.org/2000/svg" viewBox="0 0 512 512">
  <defs>
    <style>
      .cls-1 {
        fill: #fff;
      }

      .cls-2 {
        fill: #4f4fd3;
      }

      .cls-3 {
        fill: #4f4fd3;
      }

      .cls-4 {
        fill: #f15a24;
      }
    </style>
  </defs>
  <path class="cls-1" d="M58.62,382.74c-.07-.11-.14-.22-.21-.32.07.11.14.22.21.32Z"/>
  <path class="cls-1" d="M58.62,382.74c-.07-.11-.14-.22-.21-.32.07.11.14.22.21.32Z"/>
  <path class="cls-3" d="M455.79,260.66c-1.23,61-27.64,115.49-68.75,152.48.06-.05.12-.1.17-.14l39.52,18.26c41.89-44.14,68.38-104.52,70.44-170.53-9.62-.02-22.94-.04-41.38-.07Z"/>
  <path class="cls-4" d="M385.88,414.13c-25.72,21.83-56.93,38.99-91.71,45.92-10.16,2.03-20.49,3.13-30.88,3.13-.53,0-1.07-.02-1.6-.02-82.74-.72-156.66-57.31-185.52-135.37-8.28-22.4-12.86-46.57-12.86-71.69,0-35.42,8.94-68.82,24.51-97.99,34.21-64.09,100.4-107.79,174.03-107.79,16.36,0,32.24,2.15,47.42,6.18,84.24,22.36,146.61,102.91,146.61,198.87,0,.19,0,.37,0,.56,0,1.71-.03,3.41-.07,5.1h.02c18.36.03,31.62.06,41.19.07.03,0,.07,0,.1,0,.03-1.66.06-3.32.06-4.99,0-.9-.02-1.78-.03-2.68-.88-87.59-44.59-164.31-110.06-207.89-36.27-24.14-79.21-38.12-125.24-38.12C131.88,7.41,24,118.75,24,256.1c0,.1,0,.2,0,.3.06,50.79,14.59,98,39.46,137.34.34.54.67,1.08,1.02,1.62.07.11.14.22.21.32,42.47,65.84,114.1,109.1,195.11,109.1.23,0,.47,0,.7,0,19.07-.06,37.8-2.47,55.82-6.99,43.2-10.81,80.47-34.85,110.41-66.51l.17.35-39.33-18.26c-.06.05-1.65.72-1.7.77Z"/>
  <path class="cls-3" d="M408.77,244.02c8.89,20.56,13.39-11.25,13.57,12.71h0c0,.45.02.9.02,1.35,0-.45-.01-.9-.02-1.35l-29.12-.9c0,.1-1.13-.06-1.13.05,0,22.46-5.84,44.83-14.85,63.6l29.41,10.2c-3.1,6.79-6.63,13.33-10.54,19.58,16.8-26.21,26.65-57.55,26.65-91.19,0-24.48-4.7,6.87-14.01-14.04Z"/>
  <path class="cls-4" d="M378.16,319.33l-.72-.25c-21.71,43.31-65.3,72.89-115.56,72.89-71.91,0-130.21-60.56-130.21-135.27s58.3-135.27,130.21-135.27,130.15,60.5,130.21,135.15h.15l30.54.26c-.18-23.95-4.72-46.97-13.61-67.53-25.24-58.38-81.69-99.03-147.28-99.03-89.13,0-161.38,75.06-161.38,167.66s72.25,167.66,161.38,167.66c56.73,0,106.42-30.48,135.15-76.48,3.91-6.26,7.11-13.36,10.21-20.15l-29.09-9.63Z"/>
  <path class="cls-2" d="M258.38,302.21c-.59,0-1.17-.01-1.75-.04-.07,0-.14-.01-.22-.01-.51-.03-1.03-.06-1.54-.11-.03,0-.06,0-.08,0-1.09-.1-2.17-.25-3.24-.45-.05,0-.1-.01-.15-.02-.14-.03-.27-.06-.41-.09-.29-.06-.58-.11-.87-.18-5.94-1.22-11.41-3.82-16.08-7.51-9.49-7.64-15.62-19.71-15.62-33.29,0-.12.01-.24.01-.36h117.68c-.12-45.26-34.87-81.91-77.73-81.91s-77.73,36.78-77.73,82.14,34.8,82.14,77.73,82.14c36.37,0,66.91-26.41,75.39-62.07l-36.23-13.9c-2.82,20.18-19.28,35.67-39.16,35.67ZM220.78,246.15c.11-.32.22-.64.34-.96.02-.06.04-.11.06-.16h0c.05-.14.1-.27.15-.4.15-.39.3-.78.45-1.16.06-.15.13-.3.2-.46.57-1.33,1.2-2.63,1.89-3.88.07-.13.14-.27.22-.4.19-.35.4-.68.6-1.02.11-.18.22-.37.33-.55.2-.32.4-.64.61-.95.13-.19.26-.38.39-.57.21-.3.42-.61.63-.9.14-.19.28-.38.42-.56.22-.29.44-.59.67-.87.14-.17.28-.34.41-.51.47-.57.95-1.13,1.44-1.67.13-.14.25-.29.38-.43.23-.24.46-.48.7-.71.19-.19.38-.39.58-.58.23-.22.46-.44.69-.66.21-.2.42-.39.63-.58.23-.21.47-.41.7-.61.23-.19.46-.38.69-.57.23-.19.46-.38.7-.56.25-.2.51-.39.77-.58.22-.16.44-.33.67-.49.4-.28.81-.56,1.22-.83.23-.15.47-.3.7-.44.34-.22.69-.43,1.04-.63.22-.13.44-.25.66-.37.31-.17.62-.34.93-.51.23-.12.46-.24.7-.35.31-.16.63-.31.95-.45.23-.11.47-.21.7-.32.34-.15.68-.29,1.02-.42.22-.09.44-.18.66-.26.41-.16.83-.3,1.25-.45.15-.05.31-.11.46-.16.57-.19,1.15-.36,1.73-.52.17-.05.34-.08.51-.13.42-.11.85-.22,1.28-.31.22-.05.45-.09.67-.14.38-.08.77-.15,1.16-.22.24-.04.47-.08.71-.11.39-.06.78-.11,1.17-.16.23-.03.47-.06.7-.08.42-.04.85-.07,1.27-.1.2-.01.41-.03.61-.04.63-.03,1.26-.05,1.9-.05,9.01,0,17.32,3.19,23.97,8.55,7.48,5.91,12.91,14.56,14.97,24.54h-77.69c.1-.48.18-.95.29-1.42.32-1.3.7-2.56,1.13-3.81Z"/>
</svg>